<?xml version="1.0" encoding="UTF-8"?>
<svg width="230px" height="27px" viewBox="0 0 230 27" version="1.1" xmlns="http://www.w3.org/2000/svg" xmlns:xlink="http://www.w3.org/1999/xlink">
    <!-- Generator: sketchtool 49.3 (51167) - http://www.bohemiancoding.com/sketch -->
    <title>71701E44-90D6-477B-911E-B4F17BA62669</title>
    <desc>Created with sketchtool.</desc>
    <defs>
        <polygon id="path-1" points="0 27 230 27 230 0 0 0"></polygon>
    </defs>
    <g id="Search-form" stroke="none" stroke-width="1" fill="none" fill-rule="evenodd">
        <g id="search_loading" transform="translate(-36.000000, -28.000000)">
            <g id="logo" transform="translate(36.000000, 28.000000)">
                <g>
                    <path d="M4.081125,11.9381281 L4.081125,17.6695969 L7.2995625,17.6695969 C8.332375,17.6695969 9.1558125,17.4018156 9.7705,16.8638781 C10.3855,16.3268312 10.693625,15.6060187 10.693625,14.7014406 C10.693625,13.8580187 10.3989375,13.1903469 9.81175,12.6993156 C9.2233125,12.2085812 8.4176875,11.95505 7.3933125,11.9381281 L4.081125,11.9381281 Z M12.834875,5.23528437 L4.081125,5.23528437 L4.081125,8.84172187 L7.23175,8.84172187 C9.5389375,8.84172187 11.368625,9.37283125 12.7205,10.4353469 C14.0705,11.4978625 14.7470625,12.9282062 14.7470625,14.7278625 C14.7470625,16.5361281 14.0745625,17.9872531 12.7333125,19.0830187 C11.3908125,20.1805656 9.6064375,20.7366125 7.3801875,20.7532375 L-0.000125,20.7532375 L-0.000125,2.12640937 L12.834875,2.12640937 L12.834875,5.23528437 Z" id="Fill-1" fill="#4DAF54" fill-rule="evenodd"></path>
                    <polygon id="Fill-4" fill="#4DAF54" fill-rule="evenodd" points="24.314476 7 28 7 28 21 24.314476 21 24.314476 12.3568533 19.6976572 21 16 21 16 7 19.6976572 7 19.6976572 15.630536"></polygon>
                    <path d="M44,7 L44,21 L40.0719129,21 L40.0719129,10.0145624 L36.6062135,10.0145624 L36.3598801,14.3418406 C36.2059612,16.6472001 35.7306419,18.3268278 34.9339221,19.3813241 C34.1356253,20.4346194 32.9490617,20.9744783 31.3717079,21 L30.0400568,21 L30,17.9587149 L30.4888819,17.9205825 C31.1950796,17.8683381 31.7123482,17.4723015 32.0381643,16.7303708 C32.3639804,15.9887404 32.5683646,14.7240655 32.6500552,12.9390482 L32.922252,7 L44,7 Z" id="Fill-6" fill="#4DAF54" fill-rule="evenodd"></path>
                    <path d="M52.6715579,10.1144659 C51.9128329,10.1144659 51.2966376,10.375349 50.8251223,10.894013 C50.353607,11.4126771 50.0507313,12.1568607 49.9177241,13.1225313 L55.2392429,13.1225313 L55.2392429,12.8138765 C55.2220411,11.9546066 54.9925805,11.2901458 54.5511685,10.8195636 C54.1097564,10.3505325 53.4837315,10.1144659 52.6715579,10.1144659 M53.1086695,22 C51.0085064,22 49.2978427,21.3488781 47.9791357,20.0478751 C46.6591999,18.7471823 46,17.0137525 46,14.8475856 L46,14.4731672 C46,13.0207838 46.2786087,11.7213318 46.833676,10.5763623 C47.3905862,9.43139282 48.1781858,8.5485472 49.1964746,7.92937649 C50.2166064,7.31051598 51.379268,7 52.6844593,7 C54.6436285,7 56.1868812,7.6238238 57.3120673,8.87209182 C58.4375605,10.119119 59,11.8888429 59,14.1790921 L59,15.7564885 L49.8787127,15.7564885 C50.0015831,16.7016855 50.3751093,17.4595181 50.9968337,18.0290559 C51.620094,18.5998346 52.4076936,18.8842932 53.3596323,18.8842932 C54.8337705,18.8842932 55.9850665,18.3451556 56.814442,17.2671906 L58.6952813,19.3924103 C58.1211692,20.2125944 57.3452423,20.8519284 56.3641218,21.311033 C55.3848444,21.7698273 54.3002056,22 53.1086695,22" id="Fill-8" fill="#4DAF54" fill-rule="evenodd"></path>
                    <polygon id="Fill-10" fill="#4DAF54" fill-rule="evenodd" points="73 10.0145624 68.3864898 10.0145624 68.3864898 21 64.532079 21 64.532079 10.0145624 60 10.0145624 60 7 73 7"></polygon>
                    <mask id="mask-2" fill="white">
                        <use xlink:href="#path-1"></use>
                    </mask>
                    <g id="Clip-13"></g>
                    <path d="M91.1385466,21 L95,21 L95,7 L91.1385466,7 L91.1385466,21 Z M79.8744758,14.1163489 L79.8744758,18.0106591 L82.6132117,18.0106591 C83.3793632,18.0106591 83.9675419,17.8389131 84.3780577,17.4945203 C84.7873333,17.1507281 84.9925913,16.6826302 84.9925913,16.0890257 C84.9925913,15.4885152 84.7916741,15.0090077 84.3913902,14.6508032 C83.9892459,14.2956013 83.3982767,14.1163489 82.6132117,14.1163489 L79.8744758,14.1163489 Z M79.8744758,11.1017865 L82.6411169,11.1017865 C83.8875471,11.1017865 84.9839097,11.304759 85.927414,11.7095031 C86.8724685,12.1154481 87.5961422,12.695241 88.098435,13.4494821 C88.601968,14.2052244 88.8537346,15.0822699 88.8537346,16.0833208 C88.8537346,17.5581744 88.2903605,18.7468849 87.1633023,19.6476505 C86.0362441,20.5487164 84.5017706,21 82.560812,21 L76,21 L76,7 L79.8744758,7 L79.8744758,11.1017865 Z" id="Fill-12" fill="#4DAF54" fill-rule="evenodd" mask="url(#mask-2)"></path>
                    <path d="M133.214992,13.9791693 L139.785008,13.9791693 L136.493533,5.09146691 L133.214992,13.9791693 Z M140.541357,16.0286402 L132.445708,16.0286402 L130.627821,21 L128,21 L135.37841,2 L137.608655,2 L145,21 L142.385113,21 L140.541357,16.0286402 Z" id="Fill-14" fill="#4DAF54" fill-rule="evenodd" mask="url(#mask-2)"></path>
                    <path d="M150.444348,14.8537757 L150.444348,19.0723615 L154.48841,19.0723615 C155.511233,19.0723615 156.27582,18.8865035 156.782784,18.5153881 C157.288215,18.1445729 157.541851,17.6230296 157.541851,16.9501576 C157.541851,15.5530701 156.493266,14.8537757 154.396401,14.8537757 L150.444348,14.8537757 Z M150.444348,12.9390482 L153.602678,12.9390482 C155.894293,12.9390482 157.03918,12.2829905 157.03918,10.971776 C157.03918,9.66056148 155.956245,8.98378622 153.788228,8.94024921 L150.444348,8.94024921 L150.444348,12.9390482 Z M148,21 L148,7 L153.576916,7 C155.48087,7 156.941345,7.32577691 157.958034,7.97733073 C158.97595,8.6285843 159.484755,9.58309563 159.484755,10.842366 C159.484755,11.489416 159.287244,12.0746134 158.889769,12.5961567 C158.493521,13.1180003 157.90743,13.5170395 157.132722,13.7935745 C157.995451,13.9908422 158.689498,14.379973 159.213944,14.9567632 C159.738084,15.5347545 160,16.2256418 160,17.0279237 C160,18.3127158 159.517571,19.2966522 158.55302,19.977631 C157.587855,20.6586098 156.225522,21 154.462647,21 L148,21 Z" id="Fill-15" fill="#4DAF54" fill-rule="evenodd" mask="url(#mask-2)"></path>
                    <polygon id="Fill-16" fill="#4DAF54" fill-rule="evenodd" mask="url(#mask-2)" points="173 8.94024921 168.180348 8.94024921 168.180348 21 165.725705 21 165.725705 8.94024921 161 8.94024921 161 7 173 7"></polygon>
                    <path d="M177.454725,14.6596009 C177.454725,16.2649157 177.822812,17.5525799 178.556534,18.5241443 C179.291176,19.494468 180.274781,19.9808706 181.507043,19.9808706 C182.746655,19.9808706 183.731791,19.4882639 184.462452,18.503981 C185.193112,17.5190777 185.558136,16.1395926 185.558136,14.3667666 C185.558136,12.7800641 185.185763,11.493951 184.442241,10.5093579 C183.699025,9.52445455 182.712357,9.032158 181.480095,9.032158 C180.274781,9.032158 179.302506,9.51887085 178.563578,10.4888843 C177.824343,11.4604488 177.454725,12.8517216 177.454725,14.6596009 Z M175,14.3667666 C175,12.9491263 175.274687,11.674801 175.825591,10.5428601 C176.374965,9.41091924 177.139923,8.53706959 178.121997,7.92193155 C179.102846,7.30741392 180.221497,7 181.480095,7 C183.424032,7 184.997432,7.68183228 186.198153,9.04518664 C187.398874,10.4088512 188,12.2226243 188,14.4858856 L188,14.6596009 C188,16.0682453 187.732663,17.331093 187.200438,18.4500052 C186.66852,19.5686072 185.907849,20.4399752 184.918119,21.0634888 C183.927471,21.6866922 182.791364,22 181.507043,22 C179.571681,22 178.002568,21.3181677 176.801847,19.9529521 C175.601126,18.589908 175,16.7860614 175,14.5398614 L175,14.3667666 Z" id="Fill-17" fill="#4DAF54" fill-rule="evenodd" mask="url(#mask-2)"></path>
                    <path d="M196.981282,10.1456809 C195.85621,10.1456809 194.962085,10.551481 194.300921,11.3658691 C193.638606,12.180567 193.308313,13.3081337 193.308313,14.7510473 L193.308313,14.9635503 C193.308313,16.5127154 193.64091,17.739099 194.307833,18.6423914 C194.973027,19.5456839 195.872336,19.9967105 197.005471,19.9967105 C198.148397,19.9967105 199.050298,19.5428959 199.711173,18.6349569 C200.372624,17.7276375 200.70407,16.4005782 200.70407,14.6565671 C200.70407,13.2948135 200.371184,12.2025608 199.70455,11.3788795 C199.039355,10.5570569 198.130543,10.1456809 196.981282,10.1456809 M197.427625,8.11606089 C199.116529,8.11606089 200.466212,8.72290241 201.480131,9.93751475 C202.493185,11.1521271 203,12.7524044 203,14.7364881 L203,14.9635503 C203,16.3249941 202.755519,17.5427042 202.267134,18.6148218 C201.779036,19.6884883 201.07871,20.5186748 200.164427,21.110957 C199.250432,21.7032393 198.197063,22 197.005471,22 C195.202822,22 193.750624,21.3510296 192.649741,20.0561866 C191.550586,18.7616533 191,17.0247669 191,14.8442884 L191,13.6426865 C191,10.6081691 191.523517,8.1962916 192.570263,6.40705393 C193.616721,4.61750649 195.161067,3.52835143 197.204166,3.1368008 C198.363218,2.91407541 199.145037,2.64209641 199.55049,2.3221029 C199.95479,2.00210939 200.157516,1.56130517 200.157516,1 L202.043962,1 C202.043962,2.11269766 201.810424,2.98129573 201.343636,3.60393557 C200.875696,4.22657541 200.129295,4.66706986 199.102995,4.92479939 L197.391054,5.33927307 C196.026685,5.68559712 195.001536,6.27168397 194.319927,7.09505546 C193.637166,7.91842695 193.192263,9.01532629 192.985218,10.3854437 C194.202438,8.8728316 195.682857,8.11606089 197.427625,8.11606089" id="Fill-18" fill="#4DAF54" fill-rule="evenodd" mask="url(#mask-2)"></path>
                    <path d="M210.142548,17.677992 L213.422661,7 L216,7 L210.337947,23.4459654 C209.461821,25.8148126 208.068959,27 206.159964,27 L205.704837,26.9611965 L204.806966,26.7888723 L204.806966,24.8144765 L205.456586,24.8676403 C206.272311,24.8676403 206.908944,24.6995936 207.364071,24.3671667 C207.8195,24.0326011 208.195198,23.4230499 208.49026,22.5360689 L209.023607,21.0884231 L204,7 L206.628077,7 L210.142548,17.677992 Z" id="Fill-19" fill="#4DAF54" fill-rule="evenodd" mask="url(#mask-2)"></path>
                    <path d="M224.342129,19.9809124 C225.209588,19.9809124 225.969568,19.7129002 226.617491,19.1781165 C227.267245,18.6433328 227.627236,17.9748532 227.697158,17.1736082 L230,17.1736082 C229.955726,18.0027711 229.674512,18.7906775 229.157273,19.5394987 C228.639424,20.2880098 227.94967,20.8854537 227.08496,21.3315204 C226.220249,21.7769667 225.30699,22 224.342129,22 C222.403552,22 220.860691,21.3414468 219.716598,20.0274423 C218.572505,18.7134378 218,16.9145918 218,14.6333857 L218,14.2195798 C218,12.8109645 218.254039,11.5583795 218.763034,10.4627554 C219.272029,9.36589048 220.001781,8.51532385 220.953818,7.90919431 C221.904633,7.30337497 223.030101,7 224.329305,7 C225.925295,7 227.251368,7.48701299 228.309661,8.45700637 C229.366428,9.42855075 229.929773,10.6901315 230,12.2398875 L227.697158,12.2398875 C227.627236,11.3046364 227.278543,10.5356522 226.650772,9.9338655 C226.024223,9.33238895 225.249892,9.03242617 224.329305,9.03242617 C223.091779,9.03242617 222.132719,9.48531723 221.452737,10.3883076 C220.773365,11.2931591 220.433221,12.6012697 220.433221,14.3129498 L220.433221,14.7804202 C220.433221,16.4468112 220.771838,17.7301059 221.447241,18.6303044 C222.122338,19.5308131 223.087504,19.9809124 224.342129,19.9809124" id="Fill-20" fill="#4DAF54" fill-rule="evenodd" mask="url(#mask-2)"></path>
                    <path d="M116.63184,24.9983809 L119.987989,24.9983809 L119.987989,2.00161915 L116.63184,2.00161915 C115.966084,3.65272333 114.318452,4.77669158 112.499846,4.77669158 C110.681548,4.77669158 109.034224,3.65272333 108.368468,2.00161915 L105.012318,2.00161915 L105.012318,24.9983809 L108.368468,24.9983809 C109.034224,23.3472767 110.681548,22.2236128 112.499846,22.2236128 C114.318452,22.2236128 115.966084,23.3472767 116.63184,24.9983809 M120.494148,26 L116.272977,26 C116.049726,26 115.85292,25.8548246 115.788651,25.643605 C115.355986,24.2195466 114.003563,23.2252319 112.499846,23.2252319 C110.996744,23.2252319 109.644321,24.2195466 109.211656,25.643605 C109.147387,25.8548246 108.950582,26 108.727023,26 L104.506159,26 C104.226634,26 104,25.7756933 104,25.4993426 L104,1.50096175 C104,1.22430669 104.226634,1 104.506159,1 L108.727023,1 C108.950582,1 109.147387,1.14487108 109.211656,1.35639502 C109.644321,2.78045336 110.996744,3.77507244 112.499846,3.77507244 C114.003563,3.77507244 115.355986,2.78045336 115.788651,1.35639502 C115.85292,1.14487108 116.049726,1 116.272977,1 L120.494148,1 C120.773674,1 121,1.22430669 121,1.50096175 L121,25.4993426 C121,25.7756933 120.773674,26 120.494148,26" id="Fill-21" fill="#414442" fill-rule="evenodd" mask="url(#mask-2)"></path>
                    <path d="M117.234823,23.577675 L119.438927,23.577675 L119.438927,2.42232496 L117.234823,2.42232496 C116.325168,4.07079768 114.484041,5.14785169 112.499684,5.14785169 C110.515326,5.14785169 108.6742,4.07079768 107.765493,2.42232496 L105.561389,2.42232496 L105.561389,23.577675 L107.765493,23.577675 C108.6742,21.9292023 110.515326,20.8521483 112.499684,20.8521483 C114.484041,20.8521483 116.325168,21.9292023 117.234823,23.577675 M120.719463,26 L116.379551,26 C115.810108,26 115.31718,25.6528429 115.153082,25.1376392 C114.804333,24.0411491 113.712557,23.2741743 112.499684,23.2741743 C111.28681,23.2741743 110.195034,24.0411491 109.847234,25.1376392 C109.68282,25.6528429 109.190208,26 108.620765,26 L104.280537,26 C103.574502,26 103,25.4563897 103,24.7895851 L103,1.21191002 C103,0.543610268 103.574502,0 104.280537,0 L108.620765,0 C109.181039,0 109.685349,0.355529488 109.847234,0.863556905 C110.195983,1.96034594 111.28681,2.72732082 112.499684,2.72732082 C113.712557,2.72732082 114.804333,1.96034594 115.153714,0.862360843 C115.314967,0.355529488 115.818645,0 116.379551,0 L120.719463,0 C121.425498,0 122,0.543610268 122,1.21191002 L122,24.7895851 C122,25.4563897 121.425498,26 120.719463,26" id="Fill-22" fill="#414442" fill-rule="evenodd" mask="url(#mask-2)"></path>
                </g>
            </g>
        </g>
    </g>
</svg>